<svg width="151" height="132" viewBox="0 0 151 132" fill="none" xmlns="http://www.w3.org/2000/svg">
<g clip-path="url(#clip0_18_2)">
<path d="M137.113 46.696C142.147 52.6693 144.665 59.368 144.665 66.792C144.494 75.3253 141.55 82.4933 135.833 88.296C130.201 94.0133 123.331 96.872 115.225 96.872H81.5607C75.5873 96.872 72.0887 95.2507 71.0647 92.008C70.5527 90.5573 70.2967 88.3387 70.2967 85.352V14.312C70.2967 12.264 70.3393 10.7707 70.4247 9.83199C70.5953 8.89333 71.022 7.784 71.7047 6.504C72.8993 4.2 76.2273 3.048 81.6887 3.048H113.945C121.795 3.048 128.366 5.77866 133.657 11.24C139.203 16.7867 141.977 23.4427 141.977 31.208C141.977 36.84 140.355 42.0027 137.113 46.696ZM122.009 65.512C122.009 63.464 121.753 61.8427 121.241 60.648C120.814 59.4533 120.046 58.6 118.937 58.088C117.23 57.4053 114.841 57.064 111.769 57.064C108.697 57.064 106.393 56.4667 104.857 55.272C103.321 54.0773 102.553 51.6453 102.553 47.976C102.553 44.2213 103.321 41.7467 104.857 40.552C106.478 39.3573 109.123 38.76 112.793 38.76C116.206 38.76 118.254 37.864 118.937 36.072C119.193 35.1333 119.321 33.5973 119.321 31.464C119.321 29.3307 118.595 27.8373 117.145 26.984C115.779 26.1307 113.689 25.704 110.873 25.704H92.9527V74.216H113.945C119.321 74.216 122.009 71.3147 122.009 65.512Z" fill="white"/>
<path d="M59.0182 40.424H81.5462C86.1542 40.5947 88.9702 41.7893 89.9942 44.008C90.8475 45.6293 91.2742 48.0187 91.2742 51.176V79.336C91.2742 82.0667 90.0795 84.6693 87.6902 87.144C80.5222 94.568 69.7702 98.28 55.4342 98.28C42.7195 98.28 31.6688 93.5013 22.2822 83.944C12.8955 74.3013 8.20216 62.696 8.20216 49.128C8.20216 35.56 12.9808 24.2533 22.5382 15.208C32.0955 6.07733 43.3595 1.51199 56.3302 1.51199C66.3995 1.51199 75.9142 4.83999 84.8742 11.496C87.1782 13.2027 88.3302 15.1227 88.3302 17.256C88.3302 19.304 87.3488 21.6933 85.3862 24.424C82.0582 28.9467 79.0288 31.208 76.2982 31.208C74.6768 31.208 72.0742 30.056 68.4902 27.752C64.9062 25.3627 60.6395 24.168 55.6902 24.168C49.2048 24.168 43.4448 26.472 38.4102 31.08C33.3755 35.6027 30.8582 41.576 30.8582 49C30.8582 56.3387 33.4182 62.6107 38.5382 67.816C43.6582 72.936 49.4608 75.496 55.9462 75.496C60.6395 75.496 64.8635 74.728 68.6182 73.192V59.24H58.5062C55.8608 59.24 53.9835 58.8987 52.8742 58.216C51.7648 57.5333 51.0395 56.552 50.6982 55.272C50.3568 53.9067 50.1862 52.1147 50.1862 49.896C50.1862 47.592 50.3568 45.7573 50.6982 44.392C51.1248 43.0267 51.8502 42.088 52.8742 41.576C54.4102 40.808 56.4582 40.424 59.0182 40.424Z" fill="white"/>
<path d="M30.0865 103.008C31.5025 103.704 32.2105 104.472 32.2105 105.312C32.2105 105.696 32.0305 106.272 31.6705 107.04L21.7345 127.2C21.4705 127.728 21.0625 128.16 20.5105 128.496C19.9825 128.808 19.4305 128.964 18.8545 128.964H18.4945C17.8945 128.964 17.3185 128.808 16.7665 128.496C16.2385 128.16 15.8425 127.728 15.5785 127.2L5.6425 107.04C5.2825 106.272 5.1025 105.696 5.1025 105.312C5.1025 104.472 5.8105 103.704 7.2265 103.008C8.0185 102.6 8.6185 102.396 9.0265 102.396C9.4585 102.396 9.7825 102.444 9.9985 102.54C10.2145 102.636 10.4185 102.804 10.6105 103.044C10.8265 103.332 11.0185 103.656 11.1865 104.016C11.3785 104.352 11.8465 105.348 12.5905 107.004C13.3345 108.636 14.1265 110.376 14.9665 112.224C15.8305 114.072 16.6345 115.824 17.3785 117.48C18.1465 119.112 18.5785 120.024 18.6745 120.216L25.8745 104.448C26.0665 103.992 26.2345 103.632 26.3785 103.368C26.8105 102.72 27.3385 102.396 27.9625 102.396C28.5865 102.396 29.2945 102.6 30.0865 103.008ZM44.0118 104.484L53.7318 124.572C54.1398 125.388 54.3438 126 54.3438 126.408C54.3438 127.272 53.6478 128.052 52.2558 128.748C51.4398 129.156 50.7918 129.36 50.3118 129.36C49.8558 129.36 49.4718 129.252 49.1598 129.036C48.8718 128.82 48.6558 128.592 48.5117 128.352C48.3918 128.112 48.2118 127.752 47.9718 127.272L46.0998 123.384H36.1278L34.2558 127.272C34.0158 127.752 33.8238 128.1 33.6798 128.316C33.5598 128.532 33.3438 128.76 33.0318 129C32.7438 129.216 32.3598 129.324 31.8798 129.324C31.4238 129.324 30.7878 129.12 29.9718 128.712C28.5798 128.04 27.8838 127.272 27.8838 126.408C27.8838 126 28.0878 125.388 28.4958 124.572L38.2158 104.448C38.4798 103.896 38.8758 103.452 39.4038 103.116C39.9558 102.78 40.5318 102.612 41.1318 102.612C42.4278 102.612 43.3878 103.236 44.0118 104.484ZM41.0958 113.124L38.7198 118.056H43.5078L41.0958 113.124ZM62.6831 123.672H72.4751C73.2671 123.672 73.8431 123.768 74.2031 123.96C74.5631 124.128 74.8031 124.404 74.9231 124.788C75.0431 125.172 75.1031 125.688 75.1031 126.336C75.1031 126.96 75.0431 127.464 74.9231 127.848C74.8031 128.232 74.5991 128.496 74.3111 128.64C73.8551 128.88 73.2311 129 72.4391 129H59.4791C57.7991 129 56.8151 128.544 56.5271 127.632C56.3831 127.248 56.3111 126.636 56.3111 125.796V105.78C56.3111 105.228 56.3231 104.82 56.3471 104.556C56.3951 104.268 56.5151 103.944 56.7071 103.584C57.0431 102.936 57.9791 102.612 59.5151 102.612C61.1951 102.612 62.1911 103.056 62.5031 103.944C62.6231 104.352 62.6831 104.976 62.6831 105.816V123.672ZM80.644 102.576L87.304 102.612C90.784 102.612 93.844 103.872 96.484 106.392C99.124 108.888 100.444 111.972 100.444 115.644C100.444 119.292 99.148 122.424 96.556 125.04C93.988 127.656 90.868 128.964 87.196 128.964H80.608C79.144 128.964 78.232 128.664 77.872 128.064C77.584 127.56 77.44 126.792 77.44 125.76V105.744C77.44 105.168 77.452 104.748 77.476 104.484C77.524 104.22 77.644 103.908 77.836 103.548C78.172 102.9 79.108 102.576 80.644 102.576ZM87.304 122.592C89.032 122.592 90.592 121.956 91.984 120.684C93.376 119.388 94.072 117.768 94.072 115.824C94.072 113.88 93.388 112.26 92.02 110.964C90.676 109.644 89.092 108.984 87.268 108.984H83.812V122.592H87.304ZM109.16 122.628H120.248C120.8 122.628 121.208 122.652 121.472 122.7C121.76 122.724 122.084 122.832 122.444 123.024C123.092 123.36 123.416 124.296 123.416 125.832C123.416 127.512 122.972 128.496 122.084 128.784C121.676 128.928 121.052 129 120.212 129H105.956C104.276 129 103.292 128.544 103.004 127.632C102.86 127.248 102.788 126.636 102.788 125.796V105.78C102.788 104.556 103.016 103.728 103.472 103.296C103.928 102.84 104.792 102.612 106.064 102.612H120.248C120.8 102.612 121.208 102.636 121.472 102.684C121.76 102.708 122.084 102.816 122.444 103.008C123.092 103.344 123.416 104.28 123.416 105.816C123.416 107.496 122.972 108.48 122.084 108.768C121.676 108.912 121.052 108.984 120.212 108.984H109.16V112.62H116.288C116.84 112.62 117.248 112.644 117.512 112.692C117.8 112.716 118.124 112.824 118.484 113.016C119.132 113.352 119.456 114.288 119.456 115.824C119.456 117.504 119 118.488 118.088 118.776C117.68 118.92 117.056 118.992 116.216 118.992H109.16V122.628ZM143.421 122.844C144.357 122.844 145.029 122.964 145.437 123.204C145.869 123.42 146.157 123.744 146.301 124.176C146.469 124.608 146.553 125.16 146.553 125.832C146.553 126.504 146.493 127.044 146.373 127.452C146.253 127.86 146.109 128.172 145.941 128.388C145.773 128.604 145.521 128.76 145.185 128.856C144.801 129 144.189 129.072 143.349 129.072H128.373C127.821 129.072 127.293 128.928 126.789 128.64C125.733 128.04 125.205 127.092 125.205 125.796C125.205 125.172 125.349 124.668 125.637 124.284L136.797 108.84H128.517C127.941 108.84 127.509 108.828 127.221 108.804C126.957 108.756 126.633 108.648 126.249 108.48C125.553 108.144 125.205 107.244 125.205 105.78C125.205 104.244 125.529 103.308 126.177 102.972C126.537 102.78 126.849 102.672 127.113 102.648C127.401 102.6 127.833 102.576 128.409 102.576H142.881C143.433 102.576 143.961 102.72 144.465 103.008C144.969 103.296 145.353 103.68 145.617 104.16C145.905 104.64 146.049 105.204 146.049 105.852C146.049 106.5 145.905 107.016 145.617 107.4L134.457 122.844H143.421Z" fill="white"/>
</g>
<defs>
<clipPath id="clip0_18_2">
<rect width="151" height="132" fill="white"/>
</clipPath>
</defs>
</svg>
