<svg width="40" height="40" viewBox="0 0 40 40" fill="none" xmlns="http://www.w3.org/2000/svg">
<circle cx="20" cy="20" r="20" fill="#512BD4"/>
<g clip-path="url(#clip0_40_10)">
<path d="M9.194 15.543V24.456C9.194 25.559 9.782 26.578 10.738 27.13L18.456 31.586C18.9254 31.8572 19.4579 32 20 32C20.5421 32 21.0746 31.8572 21.544 31.586L29.262 27.13C29.7315 26.8591 30.1213 26.4693 30.3923 25.9999C30.6634 25.5305 30.8061 24.998 30.806 24.456V15.543C30.8062 15.0011 30.6636 14.4687 30.3925 13.9994C30.1214 13.5302 29.7315 13.1406 29.262 12.87L21.544 8.41399C21.0746 8.14277 20.5421 7.99997 20 7.99997C19.4579 7.99997 18.9254 8.14277 18.456 8.41399L10.738 12.87C10.2685 13.1407 9.87868 13.5302 9.60763 13.9995C9.33659 14.4687 9.19392 15.0011 9.194 15.543ZM14.597 18.457V21.544C14.5967 21.6454 14.6165 21.746 14.6552 21.8397C14.6939 21.9335 14.7508 22.0187 14.8225 22.0905C14.8943 22.1622 14.9795 22.2191 15.0733 22.2578C15.167 22.2965 15.2675 22.3163 15.369 22.316C15.5737 22.3157 15.7699 22.2343 15.9146 22.0896C16.0593 21.9449 16.1407 21.7487 16.141 21.544C16.1416 21.3917 16.1872 21.243 16.2721 21.1165C16.3569 20.99 16.4773 20.8914 16.618 20.8331C16.7587 20.7748 16.9134 20.7593 17.0629 20.7886C17.2123 20.818 17.3498 20.8908 17.458 20.998C17.6025 21.143 17.6837 21.3393 17.684 21.544C17.684 21.8481 17.6241 22.1492 17.5077 22.4301C17.3914 22.711 17.2208 22.9663 17.0058 23.1813C16.7908 23.3963 16.5355 23.5669 16.2546 23.6832C15.9737 23.7996 15.6726 23.8595 15.3685 23.8595C15.0644 23.8595 14.7633 23.7996 14.4824 23.6832C14.2015 23.5669 13.9462 23.3963 13.7312 23.1813C13.5162 22.9663 13.3456 22.711 13.2293 22.4301C13.1129 22.1492 13.053 21.8481 13.053 21.544V18.457C13.053 17.842 13.297 17.254 13.732 16.82C13.9468 16.6047 14.2019 16.4338 14.4828 16.3172C14.7637 16.2007 15.0649 16.1407 15.369 16.1407C15.6731 16.1407 15.9743 16.2007 16.2552 16.3172C16.5361 16.4338 16.7912 16.6047 17.006 16.82C17.44 17.254 17.684 17.843 17.684 18.457C17.6841 18.5582 17.6641 18.6585 17.6253 18.752C17.5866 18.8456 17.5297 18.9305 17.458 19.002C17.3867 19.0742 17.3017 19.1315 17.2081 19.1706C17.1144 19.2097 17.014 19.2298 16.9125 19.2298C16.811 19.2298 16.7106 19.2097 16.6169 19.1706C16.5233 19.1315 16.4383 19.0742 16.367 19.002C16.2954 18.9305 16.2385 18.8455 16.1997 18.752C16.161 18.6585 16.141 18.5582 16.141 18.457C16.1413 18.3555 16.1215 18.255 16.0828 18.1612C16.0441 18.0675 15.9872 17.9823 15.9155 17.9105C15.8437 17.8388 15.7585 17.7819 15.6647 17.7432C15.571 17.7045 15.4705 17.6847 15.369 17.685C15.2676 17.6849 15.1671 17.7047 15.0734 17.7435C14.9797 17.7822 14.8945 17.8391 14.8228 17.9108C14.7511 17.9825 14.6942 18.0677 14.6555 18.1614C14.6167 18.2551 14.5969 18.3556 14.597 18.457ZM26.947 21.544C26.9473 21.6454 26.9275 21.746 26.8888 21.8397C26.8501 21.9335 26.7932 22.0187 26.7215 22.0905C26.6497 22.1622 26.5645 22.2191 26.4707 22.2578C26.377 22.2965 26.2765 22.3163 26.175 22.316H25.403V23.088C25.3929 23.2859 25.3072 23.4725 25.1635 23.609C25.0198 23.7455 24.8292 23.8217 24.631 23.8217C24.4328 23.8217 24.2422 23.7455 24.0985 23.609C23.9548 23.4725 23.8691 23.2859 23.859 23.088V22.316H22.315V23.088C22.3144 23.2403 22.2688 23.389 22.1839 23.5155C22.0991 23.642 21.9787 23.7406 21.838 23.7989C21.6974 23.8572 21.5426 23.8727 21.3931 23.8433C21.2437 23.814 21.1062 23.7412 20.998 23.634C20.8535 23.489 20.7723 23.2927 20.772 23.088V22.316H20C19.7953 22.316 19.5989 22.2347 19.4541 22.0899C19.3093 21.9451 19.228 21.7487 19.228 21.544C19.228 21.3392 19.3093 21.1429 19.4541 20.9981C19.5989 20.8533 19.7953 20.772 20 20.772H20.772V19.229H20C19.7953 19.229 19.5989 19.1477 19.4541 19.0029C19.3093 18.8581 19.228 18.6617 19.228 18.457C19.228 18.2522 19.3093 18.0559 19.4541 17.9111C19.5989 17.7663 19.7953 17.685 20 17.685H20.772V16.913C20.7726 16.7607 20.8182 16.612 20.9031 16.4855C20.9879 16.359 21.1083 16.2604 21.249 16.2021C21.3896 16.1438 21.5444 16.1283 21.6939 16.1576C21.8433 16.187 21.9808 16.2598 22.089 16.367C22.2335 16.512 22.3147 16.7083 22.315 16.913V17.685H23.859V16.913C23.8691 16.715 23.9548 16.5285 24.0985 16.392C24.2422 16.2554 24.4328 16.1793 24.631 16.1793C24.8292 16.1793 25.0198 16.2554 25.1635 16.392C25.3072 16.5285 25.3929 16.715 25.403 16.913V17.685H26.175C26.3797 17.685 26.5761 17.7663 26.7209 17.9111C26.8657 18.0559 26.947 18.2522 26.947 18.457C26.947 18.6617 26.8657 18.8581 26.7209 19.0029C26.5761 19.1477 26.3797 19.229 26.175 19.229H25.403V20.772H26.175C26.3794 20.773 26.5752 20.8547 26.7197 20.9993C26.8643 21.1438 26.9459 21.3396 26.947 21.544ZM23.859 19.229H22.315V20.772H23.859V19.229Z" fill="white"/>
</g>
<defs>
<clipPath id="clip0_40_10">
<rect width="24" height="24" fill="white" transform="translate(8 8)"/>
</clipPath>
</defs>
</svg>
