<svg width="40" height="40" viewBox="0 0 40 40" fill="none" xmlns="http://www.w3.org/2000/svg">
<g clip-path="url(#clip0_1_2)">
<circle cx="20" cy="20" r="20" fill="#F24E1E"/>
<path d="M23.852 16.981H19.264V8H23.852C26.328 8 28.342 10.014 28.342 12.49C28.342 14.966 26.328 16.981 23.852 16.981ZM20.735 15.51H23.852C25.517 15.51 26.871 14.155 26.871 12.491C26.871 10.827 25.516 9.472 23.852 9.472H20.735V15.51ZM20.735 16.981H16.148C13.672 16.981 11.658 14.967 11.658 12.491C11.658 10.015 13.672 8 16.148 8H20.736V16.981H20.735ZM16.148 9.471C14.483 9.471 13.129 10.826 13.129 12.49C13.129 14.154 14.483 15.51 16.148 15.51H19.265V9.471H16.148ZM20.735 24.49H16.148C13.672 24.49 11.658 22.476 11.658 20C11.658 17.524 13.672 15.51 16.148 15.51H20.736V24.49H20.735ZM16.148 16.981C14.483 16.981 13.129 18.336 13.129 20C13.129 21.664 14.484 23.019 16.148 23.019H19.265V16.981H16.148ZM16.172 32C13.683 32 11.657 29.986 11.657 27.51C11.657 25.034 13.671 23.02 16.147 23.02H20.735V27.461C20.735 29.964 18.688 32 16.172 32ZM16.148 24.49C15.3476 24.4911 14.5804 24.8095 14.0144 25.3754C13.4485 25.9414 13.1301 26.7086 13.129 27.509C13.129 29.174 14.494 30.528 16.173 30.528C17.878 30.528 19.266 29.152 19.266 27.46V24.49H16.148ZM23.852 24.49H23.754C21.278 24.49 19.264 22.476 19.264 20C19.264 17.524 21.278 15.51 23.754 15.51H23.852C26.328 15.51 28.342 17.524 28.342 20C28.342 22.476 26.328 24.49 23.852 24.49ZM23.755 16.981C22.09 16.981 20.736 18.336 20.736 20C20.736 21.664 22.091 23.019 23.755 23.019H23.853C25.518 23.019 26.872 21.664 26.872 20C26.872 18.336 25.516 16.981 23.852 16.981H23.755Z" fill="white"/>
</g>
<defs>
<clipPath id="clip0_1_2">
<rect width="40" height="40" fill="white"/>
</clipPath>
</defs>
</svg>
