<svg width="40" height="40" viewBox="0 0 40 40" fill="none" xmlns="http://www.w3.org/2000/svg">
<g clip-path="url(#clip0_1_2)">
<circle cx="20" cy="20" r="20" fill="#F05032"/>
<g clip-path="url(#clip1_1_2)">
<path d="M31.546 18.93L21.067 8.45201C20.463 7.84901 19.485 7.84901 18.879 8.45201L16.708 10.627L19.468 13.387C20.113 13.172 20.847 13.317 21.357 13.828C21.873 14.343 22.015 15.086 21.795 15.728L24.453 18.388C25.098 18.165 25.84 18.31 26.353 18.823C27.074 19.543 27.074 20.707 26.353 21.427C25.634 22.146 24.472 22.146 23.753 21.427C23.214 20.886 23.079 20.09 23.349 19.431L20.86 16.955V23.48C21.036 23.566 21.202 23.683 21.348 23.828C22.061 24.549 22.061 25.711 21.348 26.428C20.629 27.149 19.459 27.149 18.739 26.428C18.02 25.709 18.02 24.549 18.739 23.83C18.921 23.65 19.126 23.514 19.344 23.424V16.835C19.127 16.744 18.92 16.613 18.744 16.434C18.199 15.889 18.068 15.092 18.348 14.425L15.636 11.7L8.45 18.881C7.85 19.486 7.85 20.465 8.45 21.07L18.93 31.547C19.534 32.151 20.512 32.151 21.116 31.547L31.546 21.117C32.151 20.514 32.151 19.535 31.546 18.93Z" fill="white"/>
</g>
</g>
<defs>
<clipPath id="clip0_1_2">
<rect width="40" height="40" fill="white"/>
</clipPath>
<clipPath id="clip1_1_2">
<rect width="24" height="24" fill="white" transform="translate(8 8)"/>
</clipPath>
</defs>
</svg>
