<svg width="40" height="40" viewBox="0 0 40 40" fill="none" xmlns="http://www.w3.org/2000/svg">
<g clip-path="url(#clip0_1_2)">
<circle cx="20" cy="20" r="20" fill="#478CBF"/>
<g clip-path="url(#clip1_1_2)">
<path d="M17.5598 8.683C16.4638 8.927 15.3786 9.2661 14.3615 9.7781C14.3845 10.6762 14.4425 11.5363 14.5605 12.4104C14.1655 12.6634 13.7505 12.8804 13.3825 13.1764C13.0075 13.4644 12.6244 13.7404 12.2854 14.0775C11.6073 13.6295 10.8892 13.2085 10.1502 12.8364C9.3532 13.6934 8.608 14.6186 8 15.6546C8.458 16.3957 8.936 17.0898 9.4521 17.7488H9.4661V24.1053C9.4781 24.1053 9.4891 24.1053 9.5011 24.1083L13.3974 24.4843C13.6014 24.5043 13.7614 24.6683 13.7754 24.8734L13.8954 26.5935L17.2948 26.8355L17.5288 25.2485C17.5588 25.0425 17.7358 24.8905 17.9438 24.8905H22.0552C22.2632 24.8905 22.4402 25.0425 22.4702 25.2485L22.7042 26.8355L26.1035 26.5935L26.2235 24.8735C26.2303 24.7744 26.2719 24.6809 26.3412 24.6096C26.4104 24.5384 26.5026 24.494 26.6015 24.4844L30.4969 24.1084C30.5089 24.1084 30.5199 24.1054 30.5319 24.1054V23.5983H30.5339V17.7498H30.5479C31.0639 17.0908 31.5419 16.3967 32 15.6556C31.392 14.6196 30.6459 13.6945 29.8488 12.8364C29.1098 13.2084 28.3917 13.6294 27.7136 14.0775C27.3746 13.7405 26.9926 13.4645 26.6176 13.1765C26.2486 12.8805 25.8335 12.6634 25.4395 12.4104C25.5565 11.5363 25.6145 10.6762 25.6385 9.7781C24.6214 9.2661 23.5373 8.9271 22.4402 8.6831C22.0022 9.4191 21.6022 10.2161 21.2531 10.9952C20.8391 10.9262 20.4241 10.9012 20.007 10.8962H19.991C19.574 10.9012 19.159 10.9262 18.7449 10.9952C18.3959 10.2162 17.9959 9.4192 17.5568 8.6831L17.5578 8.6821L17.5598 8.683ZM14.4765 17.9889C15.7736 17.9889 16.8257 19.04 16.8257 20.3371C16.8257 21.6342 15.7737 22.6853 14.4765 22.6853C13.1805 22.6853 12.1283 21.6343 12.1283 20.3371C12.1283 19.0401 13.1794 17.9889 14.4765 17.9889ZM25.5255 17.9889C26.8215 17.9889 27.8737 19.04 27.8737 20.3371C27.8737 21.6342 26.8226 22.6853 25.5255 22.6853C24.2284 22.6853 23.1763 21.6343 23.1763 20.3371C23.1763 19.0401 24.2273 17.9889 25.5255 17.9889ZM14.7015 18.919C13.8405 18.919 13.1425 19.617 13.1425 20.4781C13.1425 21.3392 13.8405 22.0363 14.7015 22.0363C15.5626 22.0363 16.2607 21.3383 16.2607 20.4781C16.2607 19.6181 15.5636 18.919 14.7015 18.919ZM25.2995 18.919C24.4384 18.919 23.7413 19.617 23.7413 20.4781C23.7413 21.3392 24.4383 22.0363 25.2994 22.0363C26.1605 22.0363 26.8586 21.3383 26.8586 20.4781C26.8586 19.6181 26.1617 18.919 25.2995 18.919ZM20.001 19.372C20.418 19.372 20.758 19.68 20.758 20.0591V22.2213C20.758 22.6003 20.419 22.9083 20.001 22.9083C19.583 22.9083 19.245 22.6003 19.245 22.2213V20.059C19.245 19.68 19.584 19.372 20.001 19.372ZM9.4601 24.9464C9.4621 25.3234 9.4661 25.7354 9.4661 25.8174C9.4661 29.5188 14.1605 31.2969 19.993 31.3179H20.007C25.8395 31.2979 30.5329 29.5188 30.5329 25.8175C30.5329 25.7335 30.5379 25.3225 30.5399 24.9465L27.0376 25.2845L26.9166 27.0135C26.9094 27.1144 26.8662 27.2094 26.7948 27.281C26.7233 27.3526 26.6285 27.3962 26.5276 27.4036L22.3462 27.6996C22.2456 27.6994 22.1485 27.6632 22.0723 27.5975C21.9962 27.5319 21.9461 27.441 21.9312 27.3416L21.6932 25.7275H18.3069L18.0689 27.3416C18.0535 27.4463 17.999 27.5413 17.9165 27.6075C17.8339 27.6737 17.7294 27.7063 17.6238 27.6986L13.4725 27.4026C13.2645 27.3876 13.0975 27.2216 13.0835 27.0136L12.9635 25.2844L9.4591 24.9474L9.4601 24.9464Z" fill="white"/>
</g>
</g>
<defs>
<clipPath id="clip0_1_2">
<rect width="40" height="40" fill="white"/>
</clipPath>
<clipPath id="clip1_1_2">
<rect width="24" height="24" fill="white" transform="translate(8 8)"/>
</clipPath>
</defs>
</svg>
