<svg width="40" height="40" viewBox="0 0 40 40" fill="none" xmlns="http://www.w3.org/2000/svg">
<g clip-path="url(#clip0_31_34)">
<circle cx="20" cy="20" r="20" fill="#3880FF"/>
<g clip-path="url(#clip1_31_34)">
<path d="M30.922 15.027L30.819 14.797L30.65 14.985C30.242 15.449 29.722 15.805 29.145 16.021L28.986 16.082L29.052 16.237C29.5484 17.428 29.8033 18.7057 29.802 19.996C29.802 25.401 25.405 29.802 19.996 29.802C14.587 29.802 10.194 25.405 10.194 20C10.194 14.595 14.596 10.194 20 10.194C21.467 10.194 22.883 10.513 24.2 11.141L24.355 11.216L24.421 11.061C24.6649 10.4933 25.0447 9.99429 25.527 9.60799L25.724 9.44899L25.499 9.33199C23.7999 8.45304 21.914 7.99649 20.001 8.00099C13.382 8.00099 8.001 13.382 8.001 20.001C8.001 26.62 13.382 32.001 20.001 32.001C26.62 32.001 32.001 26.62 32.001 20.001C32.001 18.271 31.64 16.598 30.923 15.028L30.922 15.027ZM20 14.53C18.5498 14.5316 17.1594 15.1084 16.1339 16.1339C15.1084 17.1594 14.5316 18.5497 14.53 20C14.5316 21.4502 15.1084 22.8406 16.1339 23.8661C17.1594 24.8916 18.5498 25.4684 20 25.47C21.4502 25.4684 22.8406 24.8916 23.8661 23.8661C24.8916 22.8406 25.4684 21.4502 25.47 20C25.4676 18.55 24.8906 17.1601 23.8652 16.1347C22.8399 15.1094 21.45 14.5324 20 14.53ZM30.345 12.523C30.345 12.8505 30.2805 13.1748 30.1552 13.4774C30.0298 13.78 29.8461 14.0549 29.6145 14.2865C29.3829 14.5181 29.108 14.7018 28.8054 14.8271C28.5028 14.9525 28.1785 15.017 27.851 15.017C27.5235 15.017 27.1992 14.9525 26.8966 14.8271C26.594 14.7018 26.3191 14.5181 26.0875 14.2865C25.8559 14.0549 25.6722 13.78 25.5468 13.4774C25.4215 13.1748 25.357 12.8505 25.357 12.523C25.357 11.8615 25.6198 11.2272 26.0875 10.7595C26.5552 10.2918 27.1895 10.029 27.851 10.029C28.5124 10.029 29.1468 10.2918 29.6145 10.7595C30.0822 11.2272 30.345 11.8615 30.345 12.523Z" fill="white"/>
</g>
</g>
<defs>
<clipPath id="clip0_31_34">
<rect width="40" height="40" fill="white"/>
</clipPath>
<clipPath id="clip1_31_34">
<rect width="24" height="24" fill="white" transform="translate(8 8)"/>
</clipPath>
</defs>
</svg>
