<svg width="40" height="40" viewBox="0 0 40 40" fill="none" xmlns="http://www.w3.org/2000/svg">
<g clip-path="url(#clip0_1_2)">
<circle cx="20" cy="20" r="20" fill="#CDB811"/>
<g clip-path="url(#clip1_1_2)">
<path d="M8 8H32V32H8V8ZM30.034 26.276C29.859 25.181 29.146 24.261 27.031 23.403C26.295 23.058 25.477 22.818 25.234 22.263C25.143 21.933 25.129 21.753 25.188 21.558C25.338 20.912 26.103 20.718 26.703 20.898C27.093 21.018 27.453 21.318 27.679 21.798C28.713 21.122 28.713 21.122 29.434 20.673C29.164 20.253 29.03 20.072 28.848 19.893C28.218 19.188 27.379 18.828 26.014 18.859L25.309 18.948C24.633 19.113 23.989 19.473 23.599 19.953C22.459 21.244 22.788 23.494 24.168 24.424C25.533 25.444 27.529 25.668 27.784 26.629C28.024 27.799 26.914 28.174 25.818 28.039C25.007 27.859 24.558 27.453 24.063 26.703L22.233 27.754C22.443 28.234 22.683 28.443 23.043 28.863C24.783 30.619 29.133 30.529 29.914 27.859C29.943 27.769 30.154 27.154 29.988 26.209L30.034 26.276ZM21.051 19.031H18.803C18.803 20.969 18.794 22.895 18.794 24.836C18.794 26.068 18.857 27.199 18.656 27.547C18.326 28.236 17.476 28.148 17.09 28.027C16.694 27.831 16.493 27.561 16.26 27.172C16.197 27.067 16.15 26.976 16.133 26.976L14.308 28.101C14.613 28.731 15.058 29.273 15.632 29.618C16.487 30.128 17.636 30.293 18.839 30.023C19.622 29.797 20.297 29.332 20.65 28.612C21.16 27.682 21.052 26.542 21.047 25.266C21.059 23.212 21.047 21.157 21.047 19.087L21.051 19.031Z" fill="white"/>
</g>
</g>
<defs>
<clipPath id="clip0_1_2">
<rect width="40" height="40" fill="white"/>
</clipPath>
<clipPath id="clip1_1_2">
<rect width="24" height="24" fill="white" transform="translate(8 8)"/>
</clipPath>
</defs>
</svg>
