<svg width="40" height="40" viewBox="0 0 40 40" fill="none" xmlns="http://www.w3.org/2000/svg">
<g clip-path="url(#clip0_1_2)">
<circle cx="20" cy="20" r="20" fill="#4479A1"/>
<path d="M24.405 13.501C24.29 13.501 24.212 13.515 24.131 13.534V13.547H24.145C24.199 13.651 24.291 13.727 24.359 13.82C24.413 13.927 24.459 14.034 24.513 14.14L24.527 14.125C24.621 14.059 24.667 13.953 24.667 13.792C24.627 13.745 24.621 13.698 24.587 13.652C24.547 13.585 24.461 13.552 24.407 13.499L24.405 13.501ZM13.77 26.695H12.843C12.8169 25.2218 12.7268 23.7504 12.573 22.285H12.565L11.155 26.695H10.45L9.05 22.285H9.04C8.93049 23.7527 8.86546 25.2234 8.845 26.695H8C8.055 24.729 8.192 22.885 8.41 21.165H9.56L10.895 25.229H10.903L12.25 21.165H13.345C13.587 23.18 13.729 25.025 13.773 26.695H13.77ZM17.787 22.615C17.409 24.66 16.911 26.148 16.295 27.075C15.813 27.791 15.285 28.148 14.712 28.148C14.559 28.148 14.372 28.102 14.146 28.01V27.516C14.256 27.533 14.386 27.542 14.532 27.542C14.8 27.542 15.015 27.467 15.179 27.32C15.376 27.14 15.474 26.938 15.474 26.715C15.474 26.56 15.397 26.245 15.244 25.771L14.23 22.615H15.14L15.867 24.975C16.031 25.511 16.1 25.885 16.072 26.098C16.472 25.034 16.75 23.871 16.907 22.615H17.787ZM30.112 26.695H27.482V21.165H28.367V26.015H30.112V26.695ZM26.792 26.83L25.776 26.33C25.866 26.254 25.953 26.172 26.031 26.08C26.464 25.574 26.679 24.822 26.679 23.827C26.679 21.997 25.961 21.081 24.524 21.081C23.82 21.081 23.27 21.313 22.874 21.778C22.444 22.286 22.228 23.034 22.228 24.023C22.228 24.995 22.418 25.709 22.802 26.163C23.152 26.573 23.679 26.778 24.385 26.778C24.649 26.778 24.891 26.745 25.11 26.68L26.435 27.452L26.795 26.83H26.792ZM23.5 25.588C23.275 25.228 23.163 24.648 23.163 23.852C23.163 22.459 23.587 21.762 24.433 21.762C24.876 21.762 25.203 21.929 25.41 22.262C25.634 22.624 25.746 23.198 25.746 23.985C25.746 25.389 25.322 26.093 24.476 26.093C24.031 26.093 23.706 25.926 23.498 25.593L23.5 25.588ZM21.842 25.163C21.842 25.633 21.67 26.019 21.326 26.319C20.982 26.619 20.523 26.769 19.942 26.769C19.399 26.769 18.878 26.597 18.369 26.254L18.606 25.778C19.044 25.998 19.439 26.106 19.796 26.106C20.128 26.106 20.389 26.033 20.579 25.886C20.674 25.8144 20.7506 25.7214 20.8028 25.6145C20.8549 25.5076 20.881 25.3899 20.879 25.271C20.879 24.941 20.649 24.661 20.231 24.426C19.843 24.213 19.068 23.769 19.068 23.769C18.646 23.462 18.436 23.133 18.436 22.592C18.436 22.142 18.593 21.782 18.906 21.507C19.221 21.229 19.626 21.092 20.126 21.092C20.638 21.092 21.106 21.228 21.526 21.502L21.313 21.978C20.9774 21.8306 20.6155 21.7524 20.249 21.748C19.966 21.748 19.747 21.816 19.595 21.954C19.5179 22.0179 19.4557 22.0979 19.4128 22.1885C19.37 22.279 19.3475 22.3778 19.347 22.478C19.347 22.806 19.581 23.088 20.013 23.328C20.406 23.543 21.2 23.998 21.2 23.998C21.633 24.303 21.848 24.628 21.848 25.166L21.842 25.163ZM31.224 19.311C30.689 19.297 30.274 19.351 29.927 19.499C29.827 19.539 29.667 19.539 29.653 19.666C29.708 19.719 29.716 19.806 29.763 19.88C29.843 20.014 29.981 20.193 30.109 20.287C30.249 20.397 30.389 20.503 30.536 20.597C30.796 20.757 31.091 20.852 31.346 21.013C31.491 21.107 31.639 21.226 31.786 21.326C31.859 21.376 31.906 21.466 32 21.498V21.478C31.954 21.418 31.94 21.331 31.895 21.264C31.828 21.197 31.761 21.137 31.695 21.071C31.4987 20.8123 31.2644 20.5847 31 20.396C30.786 20.25 30.318 20.046 30.23 19.801L30.217 19.787C30.363 19.774 30.537 19.721 30.677 19.681C30.904 19.621 31.112 19.634 31.347 19.575C31.453 19.548 31.56 19.515 31.667 19.481V19.421C31.547 19.301 31.457 19.138 31.333 19.026C30.9869 18.7235 30.6178 18.4483 30.229 18.203C30.019 18.069 29.753 17.983 29.532 17.869C29.452 17.829 29.318 17.809 29.272 17.742C29.152 17.596 29.082 17.402 28.997 17.228C28.8006 16.8471 28.6182 16.4592 28.45 16.065C28.33 15.803 28.257 15.542 28.11 15.302C27.42 14.165 26.673 13.476 25.524 12.802C25.277 12.662 24.981 12.602 24.668 12.528C24.501 12.52 24.334 12.508 24.168 12.501C24.058 12.454 23.952 12.327 23.858 12.266C23.478 12.026 22.494 11.506 22.214 12.194C22.034 12.628 22.481 13.056 22.636 13.276C22.751 13.429 22.896 13.604 22.976 13.776C23.023 13.892 23.036 14.011 23.083 14.132C23.189 14.426 23.29 14.754 23.43 15.029C23.503 15.169 23.583 15.316 23.677 15.442C23.731 15.515 23.823 15.549 23.844 15.669C23.75 15.805 23.744 16.003 23.69 16.169C23.45 16.926 23.544 17.862 23.884 18.419C23.991 18.585 24.246 18.953 24.587 18.812C24.887 18.692 24.821 18.312 24.907 17.977C24.927 17.897 24.914 17.844 24.955 17.79V17.805C25.049 17.993 25.143 18.172 25.229 18.36C25.435 18.688 25.795 19.028 26.096 19.255C26.256 19.375 26.383 19.583 26.583 19.657V19.637H26.568C26.525 19.579 26.468 19.551 26.414 19.504C26.2872 19.3799 26.1702 19.2462 26.064 19.104C25.7822 18.719 25.5324 18.3117 25.317 17.886C25.207 17.676 25.115 17.45 25.027 17.243C24.987 17.163 24.987 17.043 24.92 17.003C24.82 17.149 24.673 17.276 24.6 17.456C24.473 17.744 24.46 18.098 24.412 18.466C24.385 18.473 24.398 18.466 24.385 18.48C24.171 18.428 24.098 18.206 24.018 18.02C23.818 17.545 23.785 16.782 23.958 16.235C24.005 16.095 24.205 15.653 24.125 15.519C24.083 15.392 23.951 15.319 23.878 15.216C23.7841 15.0819 23.7037 14.9389 23.638 14.789C23.478 14.415 23.398 14.001 23.224 13.627C23.144 13.454 23.004 13.273 22.89 13.114C22.763 12.934 22.623 12.807 22.522 12.594C22.489 12.521 22.442 12.4 22.495 12.32C22.509 12.266 22.537 12.245 22.589 12.23C22.677 12.158 22.924 12.252 23.011 12.292C23.258 12.392 23.466 12.486 23.673 12.626C23.767 12.692 23.868 12.819 23.988 12.852H24.128C24.342 12.899 24.583 12.866 24.783 12.925C25.138 13.039 25.458 13.205 25.745 13.385C26.6293 13.9499 27.3486 14.7386 27.83 15.671C27.91 15.825 27.945 15.966 28.018 16.126C28.158 16.456 28.331 16.789 28.473 17.108C28.613 17.423 28.748 17.744 28.949 18.005C29.049 18.145 29.451 18.218 29.631 18.291C29.764 18.351 29.971 18.406 30.091 18.479C30.321 18.619 30.545 18.779 30.761 18.933C30.871 19.009 31.204 19.176 31.224 19.311Z" fill="white"/>
</g>
<defs>
<clipPath id="clip0_1_2">
<rect width="40" height="40" fill="white"/>
</clipPath>
</defs>
</svg>
