<svg width="40" height="40" viewBox="0 0 40 40" fill="none" xmlns="http://www.w3.org/2000/svg">
<g clip-path="url(#clip0_1_2)">
<circle cx="20" cy="20" r="20" fill="#4169E1"/>
<g clip-path="url(#clip1_1_2)">
<path d="M31.5594 22.7228C31.5457 22.6809 31.5268 22.6409 31.5031 22.6037C31.3641 22.3405 31.0263 22.2619 30.4957 22.3716C28.8424 22.7127 28.2022 22.5028 27.9701 22.3525C29.3121 20.3043 30.4151 17.8305 31.0112 15.5228C31.2826 14.4721 31.8094 11.9991 31.1334 10.7912C31.0902 10.7085 31.0397 10.6299 30.9825 10.5562C29.6931 8.9086 27.8007 8.0248 25.5099 8.0005C24.0152 7.9847 22.7394 8.3466 22.3938 8.4799C22.2226 8.44795 22.0506 8.42074 21.8779 8.3983C21.445 8.31991 21.0064 8.27717 20.5665 8.2705C19.3843 8.2521 18.3627 8.5347 17.5167 9.1111C16.6594 8.79 12.7279 7.4661 10.2948 9.1899C8.93589 10.1526 8.30859 11.8733 8.43019 14.3043C8.47109 15.1223 8.93709 17.6383 9.67249 20.0479C10.1323 21.5544 10.6112 22.7498 11.1059 23.6299C11.6589 24.6241 12.2318 25.2232 12.8202 25.4194C13.2676 25.5685 13.9529 25.5635 14.6783 24.6915C15.4795 23.728 16.2686 22.8657 16.6229 22.4846C17.058 22.7201 17.5293 22.8471 18.0129 22.8618C18.013 22.8632 18.0131 22.8645 18.0133 22.8659C17.9291 22.9662 17.8467 23.068 17.7661 23.1713C17.4272 23.6015 17.3567 23.691 16.2659 23.9156C15.9557 23.9796 15.1315 24.1495 15.1195 24.7271C15.117 24.8495 15.1524 24.958 15.2114 25.0539C15.4383 25.477 16.133 25.6636 16.2264 25.687C17.5609 26.0205 18.7308 25.779 19.5978 25.0083C19.5808 27.2393 19.6753 29.4257 19.9432 30.0957C20.1644 30.6486 20.705 32.0002 22.4124 32C22.6629 32 22.9387 31.9709 23.242 31.9059C25.0239 31.5238 25.7977 30.7363 26.097 29C26.2473 28.1293 26.4986 26.1247 26.6358 24.8988C26.6527 24.8285 26.6715 24.7781 26.6928 24.7626C26.6935 24.7621 26.7625 24.7155 27.12 24.7933C27.1346 24.7965 27.1494 24.7987 27.1643 24.8001L27.4182 24.8224L27.4331 24.8234C28.2799 24.8618 29.3445 24.6808 29.9643 24.3926C30.6081 24.0938 31.77 23.3603 31.5594 22.7228ZM10.371 19.8765C9.62749 17.4407 9.19309 14.9914 9.15869 14.3046C9.05009 12.1332 9.57579 10.6217 10.721 9.8119C12.5577 8.5133 15.5608 9.2711 16.829 9.6819C16.8258 9.6851 16.8224 9.688 16.8192 9.6913C14.7954 11.7353 14.8434 15.2273 14.8484 15.4408C14.8482 15.5231 14.855 15.6397 14.8646 15.8001C14.8994 16.3874 14.9642 17.4805 14.7911 18.7185C14.6302 19.8689 14.9848 20.9949 15.7639 21.8077C15.8445 21.8918 15.9287 21.9708 16.0157 22.0451C15.6689 22.4165 14.9153 23.2377 14.1132 24.2027C13.5455 24.8852 13.1535 24.7544 13.0246 24.7114C12.6327 24.5807 12.2116 24.1243 11.7865 23.3891C11.3069 22.5501 10.823 21.3574 10.371 19.8765ZM16.3782 24.9636C16.2071 24.9208 16.0511 24.8504 15.946 24.7864C16.0349 24.747 16.1834 24.6962 16.4293 24.6455C17.7126 24.3814 17.9108 24.1949 18.3436 23.6453C18.4428 23.5193 18.5552 23.3766 18.7109 23.2027C18.7444 23.1651 18.7695 23.1209 18.7846 23.0729C18.9554 22.9216 19.057 22.963 19.2215 23.0312C19.3775 23.0958 19.5293 23.2912 19.591 23.5064C19.6201 23.608 19.6529 23.8009 19.5458 23.9508C18.6415 25.2166 17.3242 25.2002 16.3782 24.9636ZM18.4722 20.9756L18.4197 21.1166C18.2867 21.4732 18.163 21.8047 18.0863 22.1196C17.4189 22.1175 16.7695 21.8324 16.2758 21.3172C15.6479 20.6621 15.3627 19.7508 15.4933 18.8168C15.6761 17.5089 15.6086 16.37 15.5723 15.7582C15.5673 15.6725 15.5628 15.5975 15.5601 15.5383C15.8558 15.2762 17.226 14.5421 18.203 14.7659C18.6489 14.8681 18.9206 15.1716 19.0335 15.6939C19.6181 18.3977 19.1109 19.5246 18.7033 20.4302C18.6193 20.6168 18.54 20.7931 18.4722 20.9756ZM25.8359 25.5481C25.819 25.7249 25.8001 25.9241 25.7741 26.144L25.6281 26.5823C25.6165 26.617 25.6104 26.6534 25.6099 26.69C25.604 27.1647 25.5559 27.3389 25.4949 27.5593C25.4315 27.7885 25.3596 28.0484 25.3155 28.6168C25.2055 30.0311 24.4373 30.8435 22.8983 31.1733C21.3828 31.4984 21.114 30.6765 20.8771 29.9516C20.8528 29.8756 20.8272 29.8001 20.8002 29.725C20.5848 29.1392 20.6091 28.3131 20.6428 27.1699C20.6593 26.6087 20.6179 25.2686 20.3126 24.5237C20.317 24.2305 20.3232 23.9328 20.3316 23.6319C20.3326 23.5938 20.3274 23.5558 20.3163 23.5193C20.3066 23.449 20.292 23.3795 20.2724 23.3113C20.1498 22.883 19.8511 22.5247 19.4927 22.3762C19.3503 22.3172 19.0889 22.209 18.7749 22.2893C18.8419 22.0133 18.958 21.7018 19.0839 21.3644L19.1368 21.2224C19.1963 21.0624 19.2708 20.8967 19.3498 20.7212C19.7763 19.7736 20.3604 18.4759 19.7264 15.544C19.489 14.4459 18.696 13.9097 17.494 14.0342C16.7733 14.1088 16.1141 14.3996 15.7852 14.5663C15.7193 14.5997 15.654 14.6344 15.5894 14.6704C15.6812 13.564 16.028 11.4963 17.3251 10.1881C17.4214 10.091 17.5227 9.9989 17.6284 9.9121C17.6809 9.90187 17.7304 9.87985 17.7731 9.8477C18.5255 9.2771 19.4676 8.9971 20.5751 9.0152C20.9842 9.0219 21.3768 9.0491 21.7493 9.0962C23.6883 9.4506 24.9932 10.543 25.7852 11.4789C26.5995 12.4412 27.0404 13.4104 27.2164 13.9332C25.8932 13.7986 24.993 14.06 24.5367 14.7122C23.5441 16.1311 25.0797 18.8851 25.8178 20.2086C25.9531 20.4512 26.07 20.6608 26.1067 20.7499C26.347 21.3324 26.6582 21.7212 26.8854 22.0051C26.955 22.0921 27.0226 22.1765 27.0739 22.2501C26.6731 22.3656 25.9531 22.6326 26.0187 23.9671C26.0064 24.1234 25.9764 24.414 25.9353 24.7819C25.8892 24.9896 25.8651 25.2422 25.8359 25.5481ZM26.7264 23.927C26.6859 23.0954 26.9955 23.0085 27.3231 22.9165C27.3684 22.9041 27.4134 22.8905 27.4581 22.8759C27.5004 22.9133 27.5452 22.9478 27.5923 22.9789C28.1626 23.3554 29.1746 23.4002 30.5991 23.1133C30.3975 23.2902 30.0802 23.5127 29.6458 23.7144C29.236 23.9047 28.5501 24.0474 27.8985 24.078C27.1788 24.1116 26.8126 23.9973 26.7264 23.927ZM27.2959 14.6558C27.29 15.0066 27.2417 15.325 27.1905 15.6575C27.1355 16.0151 27.0785 16.3849 27.0641 16.8337C27.0499 17.2705 27.1045 17.7246 27.1573 18.1638C27.2639 19.0508 27.3733 19.9641 26.9498 20.8652C26.8795 20.7406 26.8168 20.6118 26.7622 20.4796C26.7095 20.352 26.5953 20.147 26.4371 19.8634C25.8215 18.7593 24.3797 16.1738 25.1178 15.1188C25.4973 14.5761 26.4586 14.5527 27.2959 14.6558ZM27.5243 21.6695C27.4961 21.6335 27.4676 21.5977 27.439 21.5621L27.4035 21.5177C28.1297 20.3182 27.9877 19.1315 27.8613 18.0792C27.8094 17.6474 27.7604 17.2396 27.7728 16.8566C27.7857 16.4505 27.8394 16.1023 27.8913 15.7655C27.9552 15.3505 28.0201 14.9212 28.0022 14.415C28.0156 14.3619 28.021 14.2992 28.014 14.2248C27.9683 13.7393 27.4141 12.2868 26.2846 10.9718C25.677 10.2645 24.795 9.4746 23.5957 8.9323C24.1208 8.8257 24.8285 8.7288 25.6201 8.7464C27.6716 8.792 29.2947 9.5599 30.4443 11.0288C30.4687 11.0607 30.491 11.0942 30.511 11.129C31.2341 12.4846 30.2348 17.4041 27.5243 21.6695ZM18.7077 15.5533C18.6827 15.7327 18.3988 15.9758 18.0866 15.9758C18.0595 15.9758 18.0325 15.9739 18.0057 15.9702C17.8184 15.9442 17.6292 15.8262 17.4998 15.6546C17.454 15.5941 17.3795 15.4766 17.3943 15.3702C17.3998 15.3301 17.4204 15.2717 17.4868 15.2214C17.605 15.132 17.8386 15.0988 18.0964 15.1347C18.4127 15.1788 18.739 15.3285 18.7077 15.5533ZM26.6382 15.1419C26.6493 15.2211 26.5892 15.3429 26.4851 15.4521C26.4168 15.5238 26.2731 15.6482 26.0772 15.6753C26.0523 15.6788 26.0273 15.6805 26.0022 15.6805C25.7087 15.6805 25.4608 15.4461 25.4415 15.3088C25.4175 15.1323 25.7056 14.9982 26.0026 14.9568C26.2996 14.9154 26.6137 14.9656 26.6382 15.1419Z" fill="white"/>
</g>
</g>
<defs>
<clipPath id="clip0_1_2">
<rect width="40" height="40" fill="white"/>
</clipPath>
<clipPath id="clip1_1_2">
<rect width="24" height="24" fill="white" transform="translate(8 8)"/>
</clipPath>
</defs>
</svg>
