<svg width="40" height="40" viewBox="0 0 40 40" fill="none" xmlns="http://www.w3.org/2000/svg">
<g clip-path="url(#clip0_1_2)">
<circle cx="20" cy="20" r="20" fill="#3776AB"/>
<g clip-path="url(#clip1_1_2)">
<path d="M22.25 8.18L23.15 8.38L23.88 8.64L24.47 8.94L24.92 9.26L25.26 9.6L25.51 9.94L25.67 10.27L25.77 10.57L25.81 10.83L25.83 11.03L25.82 11.16V16.5L25.77 17.13L25.64 17.68L25.43 18.14L25.17 18.52L24.87 18.83L24.54 19.08L24.19 19.27L23.84 19.41L23.51 19.51L23.21 19.58L22.95 19.62L22.74 19.64H16.77L16.08 19.69L15.49 19.83L14.99 20.05L14.58 20.32L14.25 20.64L13.98 20.99L13.78 21.35L13.63 21.72L13.53 22.07L13.46 22.39L13.42 22.66L13.4 22.87V25.93H11.17L10.96 25.9L10.68 25.83L10.36 25.71L10.01 25.53L9.65 25.27L9.29 24.91L8.94 24.45L8.62 23.86L8.34 23.13L8.13 22.25L7.99 21.2L7.94 19.97L8 18.75L8.16 17.71L8.4 16.84L8.72 16.13L9.08 15.56L9.48 15.12L9.9 14.79L10.32 14.55L10.72 14.39L11.08 14.29L11.4 14.24L11.64 14.23H11.8L11.86 14.24H20.02V13.41H14.18L14.17 10.66L14.15 10.29L14.2 9.95L14.31 9.64L14.48 9.36L14.73 9.1L15.04 8.87L15.42 8.67L15.86 8.49L16.37 8.34L16.95 8.22L17.59 8.12L18.3 8.06L19.07 8.02L19.91 8L21.18 8.05L22.25 8.18ZM15.95 10.16L15.72 10.49L15.64 10.9L15.72 11.31L15.95 11.65L16.28 11.87L16.69 11.96L17.1 11.87L17.43 11.65L17.66 11.31L17.74 10.9L17.66 10.49L17.43 10.16L17.1 9.94L16.69 9.85L16.28 9.94L15.95 10.16ZM29.04 14.11L29.32 14.17L29.64 14.29L29.99 14.47L30.35 14.74L30.71 15.09L31.06 15.56L31.38 16.15L31.66 16.88L31.87 17.76L32.01 18.8L32.06 20.03L32 21.26L31.84 22.3L31.6 23.16L31.28 23.87L30.92 24.44L30.52 24.89L30.1 25.22L29.68 25.46L29.28 25.62L28.92 25.71L28.6 25.76L28.36 25.78L28.2 25.77H19.98V26.59H25.82L25.83 29.35L25.85 29.71L25.8 30.05L25.69 30.36L25.52 30.65L25.27 30.9L24.96 31.14L24.58 31.34L24.14 31.51L23.63 31.66L23.05 31.79L22.41 31.88L21.7 31.95L20.93 31.99L20.09 32L18.82 31.96L17.75 31.82L16.85 31.62L16.12 31.37L15.53 31.07L15.08 30.74L14.74 30.4L14.49 30.06L14.33 29.73L14.23 29.43L14.19 29.18L14.17 28.98L14.18 28.85V23.51L14.23 22.87L14.36 22.33L14.57 21.87L14.83 21.49L15.13 21.17L15.46 20.93L15.81 20.73L16.16 20.59L16.49 20.49L16.79 20.43L17.05 20.39L17.26 20.37L17.39 20.36H23.23L23.92 20.31L24.51 20.17L25.01 19.96L25.42 19.68L25.75 19.36L26.02 19.01L26.22 18.65L26.37 18.29L26.47 17.94L26.54 17.62L26.58 17.34L26.6 17.13V14.07H28.69L28.83 14.08L29.04 14.11ZM22.57 28.36L22.34 28.69L22.26 29.1L22.34 29.51L22.57 29.84L22.9 30.07L23.31 30.15L23.72 30.07L24.05 29.84L24.28 29.51L24.36 29.1L24.28 28.69L24.05 28.36L23.72 28.13L23.31 28.05L22.9 28.13L22.57 28.36Z" fill="white"/>
</g>
</g>
<defs>
<clipPath id="clip0_1_2">
<rect width="40" height="40" fill="white"/>
</clipPath>
<clipPath id="clip1_1_2">
<rect width="24" height="24" fill="white" transform="translate(8 8)"/>
</clipPath>
</defs>
</svg>
