<svg width="40" height="40" viewBox="0 0 40 40" fill="none" xmlns="http://www.w3.org/2000/svg">
<g clip-path="url(#clip0_1_2)">
<circle cx="20" cy="20" r="20" fill="#43B02A"/>
<g clip-path="url(#clip1_1_2)">
<path d="M31.174 11.468L23.758 19.79C23.7367 19.8123 23.7111 19.8301 23.6827 19.8422C23.6544 19.8544 23.6238 19.8607 23.593 19.8607C23.5621 19.8607 23.5316 19.8544 23.5032 19.8422C23.4749 19.8301 23.4493 19.8123 23.428 19.79L19.642 15.89C19.6104 15.8498 19.5932 15.8001 19.5932 15.749C19.5932 15.6979 19.6104 15.6482 19.642 15.608L20.872 14C20.8932 13.9715 20.9208 13.9483 20.9526 13.9323C20.9844 13.9163 21.0194 13.908 21.055 13.908C21.0906 13.908 21.1256 13.9163 21.1574 13.9323C21.1892 13.9483 21.2168 13.9715 21.238 14L23.344 16.346C23.3654 16.3703 23.3917 16.3897 23.4212 16.403C23.4507 16.4163 23.4826 16.4232 23.515 16.4232C23.5473 16.4232 23.5793 16.4163 23.6088 16.403C23.6383 16.3897 23.6646 16.3703 23.686 16.346L29.626 8.252C29.6419 8.22822 29.6513 8.20064 29.6531 8.17206C29.6549 8.14348 29.6491 8.11494 29.6363 8.08933C29.6235 8.06372 29.6042 8.04196 29.5802 8.02626C29.5563 8.01057 29.5286 8.00151 29.5 8H8.71599C8.66984 8 8.62559 8.01833 8.59296 8.05096C8.56032 8.08359 8.54199 8.12785 8.54199 8.174V31.826C8.54199 31.8721 8.56032 31.9164 8.59296 31.949C8.62559 31.9817 8.66984 32 8.71599 32H31.282C31.3281 32 31.3724 31.9817 31.405 31.949C31.4377 31.9164 31.456 31.8721 31.456 31.826V11.6C31.4615 11.5653 31.4556 11.5297 31.4391 11.4987C31.4226 11.4676 31.3965 11.4428 31.3647 11.4279C31.3328 11.413 31.297 11.4088 31.2626 11.416C31.2282 11.4233 31.1971 11.4415 31.174 11.468ZM14.932 29.366C13.4459 29.4323 11.9927 28.9156 10.882 27.926C10.8478 27.8858 10.829 27.8348 10.829 27.782C10.829 27.7292 10.8478 27.6782 10.882 27.638L11.764 26.402C11.7822 26.3764 11.8055 26.355 11.8326 26.3391C11.8596 26.3232 11.8897 26.3133 11.9209 26.3099C11.9521 26.3065 11.9836 26.3097 12.0135 26.3194C12.0433 26.3291 12.0707 26.3449 12.094 26.366C12.8996 27.1135 13.959 27.5274 15.058 27.524C16.216 27.524 16.78 26.99 16.78 26.426C16.78 24.674 11.08 25.874 11.08 22.148C11.08 20.498 12.508 19.148 14.836 19.148C16.1815 19.1001 17.4988 19.5413 18.544 20.39C18.5815 20.4309 18.6023 20.4845 18.6023 20.54C18.6023 20.5955 18.5815 20.6491 18.544 20.69L17.638 21.89C17.6198 21.9137 17.5971 21.9336 17.5711 21.9483C17.5451 21.963 17.5163 21.9723 17.4867 21.9757C17.457 21.979 17.4269 21.9764 17.3983 21.9678C17.3696 21.9593 17.343 21.9451 17.32 21.926C16.5518 21.3133 15.5966 20.9829 14.614 20.99C13.708 20.99 13.204 21.392 13.204 21.986C13.204 23.558 18.892 22.508 18.892 26.186C18.898 27.998 17.608 29.366 14.932 29.366ZM27.37 25.934C27.37 25.9849 27.3498 26.0338 27.3138 26.0698C27.2777 26.1058 27.2289 26.126 27.178 26.126H21.976C21.9676 26.126 21.9593 26.1277 21.9516 26.1311C21.9439 26.1345 21.937 26.1394 21.9313 26.1456C21.9256 26.1519 21.9214 26.1592 21.9187 26.1672C21.9161 26.1752 21.9152 26.1836 21.916 26.192C22.001 26.6778 22.2637 27.1145 22.653 27.4173C23.0422 27.7201 23.5302 27.8672 24.022 27.83C24.6682 27.8126 25.2946 27.6038 25.822 27.23C25.8426 27.2139 25.8663 27.2022 25.8915 27.1956C25.9168 27.189 25.9432 27.1876 25.969 27.1915C25.9949 27.1954 26.0196 27.2046 26.0418 27.2185C26.064 27.2323 26.0831 27.2505 26.098 27.272L26.734 28.202C26.7612 28.2433 26.772 28.2933 26.7643 28.3422C26.7565 28.391 26.7307 28.4352 26.692 28.466C25.8534 29.0762 24.8368 29.3926 23.8 29.366C23.2814 29.3949 22.7626 29.315 22.2767 29.1315C21.7908 28.948 21.3487 28.665 20.9786 28.3006C20.6086 27.9362 20.3188 27.4985 20.1279 27.0155C19.937 26.5325 19.8491 26.0149 19.87 25.496C19.8553 24.9897 19.9435 24.4857 20.1292 24.0145C20.3149 23.5433 20.5944 23.1146 20.9505 22.7545C21.3067 22.3944 21.7323 22.1103 22.2014 21.9194C22.6706 21.7286 23.1736 21.6349 23.68 21.644C25.876 21.644 27.364 23.288 27.364 25.694L27.37 25.934ZM23.686 23.186C23.2449 23.1727 22.815 23.3257 22.4815 23.6147C22.1481 23.9037 21.9355 24.3075 21.886 24.746C21.8852 24.7544 21.8861 24.7628 21.8887 24.7708C21.8914 24.7788 21.8956 24.7861 21.9013 24.7924C21.907 24.7986 21.9139 24.8035 21.9216 24.8069C21.9293 24.8103 21.9376 24.812 21.946 24.812H25.438C25.4464 24.812 25.4547 24.8103 25.4624 24.8069C25.4701 24.8035 25.477 24.7986 25.4827 24.7924C25.4883 24.7861 25.4926 24.7788 25.4953 24.7708C25.4979 24.7628 25.4988 24.7544 25.498 24.746C25.4627 24.2996 25.2525 23.8852 24.9131 23.593C24.5737 23.3008 24.1327 23.1545 23.686 23.186Z" fill="white"/>
</g>
</g>
<defs>
<clipPath id="clip0_1_2">
<rect width="40" height="40" fill="white"/>
</clipPath>
<clipPath id="clip1_1_2">
<rect width="24" height="24" fill="white" transform="translate(8 8)"/>
</clipPath>
</defs>
</svg>
