<svg width="40" height="40" viewBox="0 0 40 40" fill="none" xmlns="http://www.w3.org/2000/svg">
<g clip-path="url(#clip0_1_2)">
<circle cx="20" cy="20" r="20" fill="#6DB33F"/>
<g clip-path="url(#clip1_1_2)">
<path d="M31.693 18.7058L26.963 10.5214C26.5536 9.8108 25.5464 9.2272 24.7228 9.2272H15.2725C14.4535 9.2272 13.4417 9.8108 13.0323 10.5214L8.307 18.7058C7.8975 19.4164 7.8975 20.5788 8.307 21.2895L13.0322 29.4785C13.4416 30.1892 14.4488 30.7728 15.2724 30.7728H24.7274C25.5464 30.7728 26.5534 30.1892 26.9676 29.4786L31.6928 21.2896C32.1023 20.5789 32.1025 19.4164 31.693 18.7058ZM18.9763 13.7547C18.9763 13.2182 19.414 12.7805 19.9505 12.7805C20.487 12.7805 20.9247 13.2182 20.9247 13.7547V19.5764C20.9247 20.113 20.487 20.5506 19.9505 20.5506C19.414 20.5506 18.9763 20.113 18.9763 19.5764V13.7547ZM19.9505 26.1841C16.3078 26.1841 13.3428 23.2191 13.3428 19.5764C13.3475 17.4868 14.3358 15.5243 16.0113 14.2724C16.1027 14.2041 16.2066 14.1546 16.3172 14.1266C16.4277 14.0987 16.5427 14.0928 16.6556 14.1095C16.7684 14.1261 16.8768 14.1648 16.9746 14.2235C17.0724 14.2821 17.1577 14.3595 17.2255 14.4512C17.2938 14.5426 17.3433 14.6465 17.3713 14.7571C17.3993 14.8677 17.4051 14.9827 17.3885 15.0955C17.3719 15.2084 17.3331 15.3168 17.2745 15.4146C17.2158 15.5124 17.1384 15.5977 17.0467 15.6655C14.8865 17.2703 14.4347 20.3247 16.0395 22.4849C17.6444 24.6452 20.6988 25.0969 22.859 23.4921C24.0968 22.5744 24.8263 21.1201 24.8263 19.5764C24.8243 18.8126 24.6436 18.0599 24.2987 17.3784C23.9539 16.6968 23.4544 16.1054 22.8402 15.6514C22.4542 15.369 22.3742 14.823 22.6566 14.4371C22.939 14.0511 23.4849 13.9711 23.8709 14.2536C25.5604 15.5007 26.5535 17.4774 26.5582 19.5764C26.5582 23.2238 23.5932 26.1841 19.9505 26.1841Z" fill="white"/>
</g>
</g>
<defs>
<clipPath id="clip0_1_2">
<rect width="40" height="40" fill="white"/>
</clipPath>
<clipPath id="clip1_1_2">
<rect width="24" height="24" fill="white" transform="translate(8 8)"/>
</clipPath>
</defs>
</svg>
