<svg width="40" height="40" viewBox="0 0 40 40" fill="none" xmlns="http://www.w3.org/2000/svg">
<g clip-path="url(#clip0_1_2)">
<circle cx="20" cy="20" r="20" fill="#06B6D4"/>
<g clip-path="url(#clip1_1_2)">
<path d="M20.001 12.8C16.801 12.8 14.801 14.4 14.001 17.6C15.201 16 16.601 15.4 18.201 15.8C19.114 16.028 19.766 16.69 20.489 17.424C21.666 18.618 23.027 20 26.001 20C29.201 20 31.201 18.4 32.001 15.2C30.801 16.8 29.401 17.4 27.801 17C26.888 16.772 26.236 16.11 25.513 15.376C24.337 14.182 22.976 12.8 20.001 12.8ZM14.001 20C10.801 20 8.80101 21.6 8.00101 24.8C9.20101 23.2 10.601 22.6 12.201 23C13.114 23.228 13.766 23.89 14.489 24.624C15.666 25.818 17.027 27.2 20.001 27.2C23.201 27.2 25.201 25.6 26.001 22.4C24.801 24 23.401 24.6 21.801 24.2C20.888 23.972 20.236 23.31 19.513 22.576C18.337 21.382 16.976 20 14.001 20Z" fill="white"/>
</g>
</g>
<defs>
<clipPath id="clip0_1_2">
<rect width="40" height="40" fill="white"/>
</clipPath>
<clipPath id="clip1_1_2">
<rect width="24" height="24" fill="white" transform="translate(8 8)"/>
</clipPath>
</defs>
</svg>
