<svg width="40" height="40" viewBox="0 0 40 40" fill="none" xmlns="http://www.w3.org/2000/svg">
<g clip-path="url(#clip0_1_2)">
<circle cx="20" cy="20" r="20" fill="#3178C6"/>
<g clip-path="url(#clip1_1_2)">
<path d="M9.125 8C8.502 8 8 8.502 8 9.125V30.875C8 31.498 8.502 32 9.125 32H30.875C31.498 32 32 31.498 32 30.875V9.125C32 8.502 31.498 8 30.875 8H9.125ZM26.488 17.75C27.1 17.75 27.642 17.787 28.115 17.861C28.5611 17.9278 28.9989 18.0418 29.421 18.201V20.659C29.2184 20.5189 29.0031 20.398 28.778 20.298C28.5458 20.1935 28.3062 20.1066 28.061 20.038C27.5966 19.9086 27.1171 19.8413 26.635 19.838C26.335 19.838 26.062 19.866 25.816 19.924C25.5967 19.9709 25.3864 20.0526 25.193 20.166C25.023 20.27 24.893 20.395 24.8 20.54C24.7065 20.6861 24.6578 20.8565 24.66 21.03C24.66 21.226 24.713 21.403 24.816 21.559C24.92 21.715 25.068 21.863 25.259 22.003C25.45 22.143 25.682 22.279 25.955 22.413C26.228 22.548 26.537 22.687 26.881 22.829C27.351 23.026 27.773 23.236 28.147 23.457C28.521 23.679 28.842 23.93 29.11 24.21C29.378 24.489 29.582 24.808 29.724 25.167C29.866 25.526 29.938 25.943 29.938 26.42C29.938 27.077 29.813 27.63 29.565 28.076C29.3227 28.5159 28.975 28.8887 28.553 29.161C28.0982 29.4494 27.5941 29.6514 27.066 29.757C26.5 29.877 25.903 29.937 25.276 29.937C24.6589 29.9397 24.0429 29.8848 23.436 29.773C22.9109 29.6822 22.4017 29.5161 21.924 29.28V26.65C22.8278 27.4191 23.9743 27.8441 25.161 27.85C25.494 27.85 25.785 27.82 26.033 27.76C26.282 27.7 26.489 27.616 26.656 27.51C26.822 27.402 26.946 27.276 27.029 27.13C27.1207 26.96 27.1625 26.7675 27.1494 26.5748C27.1363 26.3821 27.0689 26.197 26.955 26.041C26.8064 25.8444 26.6247 25.6752 26.418 25.541C26.1617 25.3711 25.8917 25.2226 25.611 25.097C25.2782 24.945 24.9425 24.7997 24.604 24.661C23.686 24.278 23.002 23.809 22.551 23.256C22.101 22.703 21.875 22.034 21.875 21.251C21.875 20.637 21.998 20.11 22.244 19.669C22.49 19.228 22.824 18.865 23.248 18.58C23.6965 18.2841 24.1943 18.0711 24.718 17.951C25.298 17.8143 25.8921 17.7468 26.488 17.75ZM11.375 17.938H20.938V20.104H17.506V29.75H14.789V20.104H11.375V17.938Z" fill="white"/>
</g>
</g>
<defs>
<clipPath id="clip0_1_2">
<rect width="40" height="40" fill="white"/>
</clipPath>
<clipPath id="clip1_1_2">
<rect width="24" height="24" fill="white" transform="translate(8 8)"/>
</clipPath>
</defs>
</svg>
