<svg width="22" height="17" viewBox="0 0 22 17" fill="none" xmlns="http://www.w3.org/2000/svg">
<path d="M19.778 14.125L13.3811 8.5M7.8784 8.5L1.48152 14.125M1 3.8125L8.86262 9.17073C9.49931 9.60462 9.81765 9.82157 10.1639 9.9056C10.4698 9.97983 10.7897 9.97983 11.0956 9.9056C11.4419 9.82157 11.7602 9.60462 12.3969 9.17073L20.2595 3.8125M5.62228 16H15.6372C17.2552 16 18.0642 16 18.6821 15.6935C19.2257 15.4238 19.6677 14.9936 19.9446 14.4643C20.2595 13.8627 20.2595 13.0751 20.2595 11.5V5.5C20.2595 3.92485 20.2595 3.13728 19.9446 2.53565C19.6677 2.00645 19.2257 1.57619 18.6821 1.30654C18.0642 1 17.2552 1 15.6372 1H5.62228C4.00433 1 3.19536 1 2.57738 1.30654C2.03379 1.57619 1.59185 2.00645 1.31487 2.53565C1 3.13728 1 3.92485 1 5.5V11.5C1 13.0751 1 13.8627 1.31487 14.4643C1.59185 14.9936 2.03379 15.4238 2.57738 15.6935C3.19536 16 4.00433 16 5.62228 16Z" stroke="#020035" stroke-width="2" stroke-linecap="round" stroke-linejoin="round"/>
</svg>
