<svg width="18" height="17" viewBox="0 0 18 17" fill="none" xmlns="http://www.w3.org/2000/svg">
<path d="M10.3044 3.97619C11.0543 4.11798 11.7434 4.4734 12.2836 4.99697C12.8238 5.52054 13.1905 6.18844 13.3368 6.91517M10.3044 1C11.8623 1.16774 13.315 1.84388 14.4241 2.91741C15.5331 3.99095 16.2326 5.39807 16.4076 6.90773M7.36953 9.82668C6.44708 8.93265 5.7187 7.92176 5.18439 6.84317C5.13843 6.7504 5.11545 6.70401 5.09779 6.64531C5.03505 6.43671 5.08012 6.18057 5.21064 6.00391C5.24736 5.9542 5.29124 5.91167 5.379 5.82662C5.64739 5.56649 5.78159 5.43643 5.86932 5.30565C6.20019 4.81242 6.20019 4.17658 5.86932 3.68335C5.78158 3.55257 5.64739 3.42251 5.379 3.16238L5.2294 3.01739C4.82141 2.62197 4.61742 2.42426 4.39834 2.31686C3.96262 2.10327 3.44806 2.10327 3.01235 2.31686C2.79326 2.42426 2.58927 2.62197 2.18129 3.01739L2.06027 3.13468C1.65368 3.52874 1.45039 3.72577 1.29512 3.99365C1.12284 4.29091 0.99896 4.75258 1.00001 5.09352C1.00095 5.40077 1.06245 5.61076 1.18544 6.03073C1.8464 8.28772 3.0935 10.4175 4.92674 12.1942C6.75998 13.971 8.9574 15.1797 11.2861 15.8203C11.7194 15.9395 11.9361 15.9991 12.2531 16C12.6049 16.001 13.0812 15.8809 13.3879 15.714C13.6643 15.5635 13.8676 15.3665 14.2742 14.9724L14.3952 14.8551C14.8032 14.4597 15.0072 14.262 15.118 14.0496C15.3384 13.6273 15.3384 13.1286 15.118 12.7063C15.0072 12.494 14.8032 12.2963 14.3952 11.9009L14.2456 11.7559C13.9772 11.4958 13.843 11.3657 13.7081 11.2807C13.1992 10.96 12.5431 10.96 12.0342 11.2807C11.8993 11.3657 11.7651 11.4958 11.4967 11.7559C11.409 11.8409 11.3651 11.8835 11.3138 11.9191C11.1315 12.0456 10.8672 12.0892 10.652 12.0284C10.5914 12.0113 10.5436 11.9891 10.4479 11.9445C9.33499 11.4267 8.29197 10.7207 7.36953 9.82668Z" stroke="#020035" stroke-width="2" stroke-linecap="round" stroke-linejoin="round"/>
</svg>
