<svg width="24" height="24" viewBox="0 0 24 24" fill="none" xmlns="http://www.w3.org/2000/svg">
<g clip-path="url(#clip0_40_11)">
<path d="M1.194 7.54299V16.456C1.194 17.559 1.782 18.578 2.738 19.13L10.456 23.586C10.9254 23.8572 11.4579 24 12 24C12.5421 24 13.0746 23.8572 13.544 23.586L21.262 19.13C21.7315 18.8591 22.1213 18.4693 22.3923 17.9999C22.6634 17.5305 22.8061 16.998 22.806 16.456V7.54299C22.8062 7.00107 22.6636 6.46867 22.3925 5.99941C22.1214 5.53015 21.7315 5.1406 21.262 4.86999L13.544 0.413993C13.0746 0.142768 12.5421 -3.05176e-05 12 -3.05176e-05C11.4579 -3.05176e-05 10.9254 0.142768 10.456 0.413993L2.738 4.86999C2.26855 5.14068 1.87868 5.53025 1.60763 5.99949C1.33659 6.46873 1.19392 7.00109 1.194 7.54299ZM6.597 10.457V13.544C6.59674 13.6454 6.61652 13.746 6.65523 13.8397C6.69393 13.9335 6.75079 14.0187 6.82253 14.0905C6.89426 14.1622 6.97947 14.2191 7.07326 14.2578C7.16704 14.2965 7.26755 14.3163 7.369 14.316C7.57367 14.3157 7.76987 14.2343 7.91459 14.0896C8.05932 13.9449 8.14074 13.7487 8.141 13.544C8.14162 13.3917 8.18723 13.243 8.27208 13.1165C8.35694 12.99 8.47726 12.8914 8.61796 12.8331C8.75865 12.7748 8.91344 12.7593 9.06289 12.7886C9.21234 12.818 9.3498 12.8908 9.458 12.998C9.60249 13.143 9.68373 13.3393 9.684 13.544C9.684 13.8481 9.62411 14.1492 9.50774 14.4301C9.39138 14.711 9.22082 14.9663 9.00581 15.1813C8.79079 15.3963 8.53553 15.5669 8.2546 15.6832C7.97367 15.7996 7.67258 15.8595 7.3685 15.8595C7.06442 15.8595 6.76333 15.7996 6.4824 15.6832C6.20147 15.5669 5.94621 15.3963 5.73119 15.1813C5.51618 14.9663 5.34562 14.711 5.22926 14.4301C5.11289 14.1492 5.053 13.8481 5.053 13.544V10.457C5.053 9.84199 5.297 9.25399 5.732 8.81999C5.94677 8.60465 6.20191 8.4338 6.48282 8.31723C6.76372 8.20066 7.06487 8.14065 7.369 8.14065C7.67313 8.14065 7.97428 8.20066 8.25518 8.31723C8.53609 8.4338 8.79123 8.60465 9.006 8.81999C9.44 9.25399 9.684 9.84299 9.684 10.457C9.68406 10.5582 9.66413 10.6585 9.62535 10.752C9.58656 10.8456 9.52969 10.9305 9.458 11.002C9.38667 11.0742 9.30172 11.1315 9.20808 11.1706C9.11444 11.2097 9.01398 11.2298 8.9125 11.2298C8.81103 11.2298 8.71056 11.2097 8.61692 11.1706C8.52328 11.1315 8.43834 11.0742 8.367 11.002C8.29535 10.9305 8.23851 10.8455 8.19973 10.752C8.16095 10.6585 8.14099 10.5582 8.141 10.457C8.14126 10.3555 8.12148 10.255 8.08277 10.1612C8.04407 10.0675 7.98721 9.98226 7.91548 9.91052C7.84374 9.83878 7.75853 9.78192 7.66474 9.74322C7.57096 9.70452 7.47045 9.68473 7.369 9.68499C7.26758 9.68486 7.16714 9.70474 7.07341 9.74349C6.97969 9.78224 6.89453 9.8391 6.82282 9.91081C6.75111 9.98253 6.69425 10.0677 6.6555 10.1614C6.61675 10.2551 6.59687 10.3556 6.597 10.457ZM18.947 13.544C18.9473 13.6454 18.9275 13.746 18.8888 13.8397C18.8501 13.9335 18.7932 14.0187 18.7215 14.0905C18.6497 14.1622 18.5645 14.2191 18.4707 14.2578C18.377 14.2965 18.2765 14.3163 18.175 14.316H17.403V15.088C17.3929 15.2859 17.3072 15.4725 17.1635 15.609C17.0198 15.7455 16.8292 15.8217 16.631 15.8217C16.4328 15.8217 16.2422 15.7455 16.0985 15.609C15.9548 15.4725 15.8691 15.2859 15.859 15.088V14.316H14.315V15.088C14.3144 15.2403 14.2688 15.389 14.1839 15.5155C14.0991 15.642 13.9787 15.7406 13.838 15.7989C13.6974 15.8572 13.5426 15.8727 13.3931 15.8433C13.2437 15.814 13.1062 15.7412 12.998 15.634C12.8535 15.489 12.7723 15.2927 12.772 15.088V14.316H12C11.7953 14.316 11.5989 14.2347 11.4541 14.0899C11.3093 13.9451 11.228 13.7487 11.228 13.544C11.228 13.3392 11.3093 13.1429 11.4541 12.9981C11.5989 12.8533 11.7953 12.772 12 12.772H12.772V11.229H12C11.7953 11.229 11.5989 11.1477 11.4541 11.0029C11.3093 10.8581 11.228 10.6617 11.228 10.457C11.228 10.2522 11.3093 10.0559 11.4541 9.91111C11.5989 9.76633 11.7953 9.68499 12 9.68499H12.772V8.91299C12.7726 8.76069 12.8182 8.61196 12.9031 8.48549C12.9879 8.35901 13.1083 8.26042 13.249 8.20209C13.3896 8.14377 13.5444 8.1283 13.6939 8.15764C13.8433 8.18697 13.9808 8.25981 14.089 8.36699C14.2335 8.512 14.3147 8.70829 14.315 8.91299V9.68499H15.859V8.91299C15.8691 8.71504 15.9548 8.52853 16.0985 8.39198C16.2422 8.25544 16.4328 8.1793 16.631 8.1793C16.8292 8.1793 17.0198 8.25544 17.1635 8.39198C17.3072 8.52853 17.3929 8.71504 17.403 8.91299V9.68499H18.175C18.3797 9.68499 18.5761 9.76633 18.7209 9.91111C18.8657 10.0559 18.947 10.2522 18.947 10.457C18.947 10.6617 18.8657 10.8581 18.7209 11.0029C18.5761 11.1477 18.3797 11.229 18.175 11.229H17.403V12.772H18.175C18.3794 12.773 18.5752 12.8547 18.7197 12.9993C18.8643 13.1438 18.9459 13.3396 18.947 13.544ZM15.859 11.229H14.315V12.772H15.859V11.229Z" fill="#512BD4"/>
</g>
<defs>
<clipPath id="clip0_40_11">
<rect width="24" height="24" fill="white"/>
</clipPath>
</defs>
</svg>
